<svg xmlns="http://www.w3.org/2000/svg" width="303" height="67" viewBox="0 0 303 67">
    <path fill="#1D1E1F" fill-rule="evenodd" d="M35.623 2.269v7.474H22.517v39.64h-9.478V9.742H0V2.269h35.623zm30.224 9.61c4.302 0 7.73 1.4 10.284 4.204 2.554 2.802 3.831 6.74 3.831 11.811v21.488h-9.41v-20.42c0-2.936-.762-5.216-2.285-6.84-1.524-1.624-3.607-2.436-6.251-2.436-2.689 0-4.84.868-6.453 2.603-1.613 1.735-2.42 4.226-2.42 7.474v19.62h-9.476V0h9.477v19.82c.986-2.492 2.61-4.438 4.873-5.84 2.263-1.4 4.873-2.102 7.83-2.102zm39.836.066c3.136 0 5.825.734 8.065 2.202 2.24 1.469 3.831 3.448 4.772 5.94v-7.675h9.41v36.97h-9.41v-7.74c-.94 2.49-2.531 4.482-4.772 5.972-2.24 1.49-4.929 2.236-8.065 2.236-3.137 0-5.96-.757-8.47-2.27-2.509-1.512-4.47-3.703-5.88-6.573-1.412-2.87-2.118-6.24-2.118-10.11 0-3.87.706-7.24 2.117-10.11 1.412-2.87 3.372-5.06 5.882-6.573 2.509-1.512 5.332-2.269 8.469-2.269zm2.957 8.208c-2.957 0-5.332.957-7.125 2.87-1.792 1.913-2.688 4.538-2.688 7.874 0 3.337.896 5.95 2.688 7.842 1.793 1.89 4.168 2.836 7.125 2.836 2.868 0 5.231-.968 7.091-2.903 1.86-1.935 2.79-4.527 2.79-7.775 0-3.292-.93-5.905-2.79-7.84-1.86-1.936-4.223-2.904-7.091-2.904zm52.875-8.275c4.302 0 7.73 1.402 10.284 4.205 2.554 2.802 3.83 6.74 3.83 11.811v21.488h-9.41v-20.42c0-2.936-.76-5.216-2.284-6.84-1.524-1.624-3.608-2.436-6.251-2.436-2.689 0-4.84.868-6.453 2.603-1.613 1.735-2.42 4.226-2.42 7.474v19.62h-9.477v-36.97h9.477v7.407c.986-2.492 2.61-4.438 4.873-5.84 2.263-1.4 4.873-2.102 7.83-2.102zm47.027 37.504l-12.3-16.149v16.15h-9.477V0h9.477v27.761l12.233-15.349H219.7l-15.661 18.419 16.064 18.551h-11.56zm31.77-37.437c4.526 0 8.155 1.135 10.889 3.404 2.733 2.269 4.436 5.294 5.108 9.075h-8.872c-.359-1.78-1.165-3.203-2.42-4.27-1.255-1.068-2.89-1.602-4.907-1.602-1.613 0-2.868.378-3.764 1.134-.896.757-1.344 1.78-1.344 3.07 0 1.023.358 1.846 1.075 2.47.717.622 1.614 1.111 2.689 1.467 1.075.356 2.621.779 4.638 1.268 2.823.623 5.12 1.28 6.89 1.969 1.77.69 3.293 1.78 4.57 3.27 1.277 1.49 1.915 3.503 1.915 6.039 0 3.159-1.243 5.717-3.73 7.674-2.487 1.958-5.836 2.937-10.049 2.937-4.839 0-8.715-1.08-11.628-3.237-2.912-2.158-4.682-5.238-5.31-9.242h9.074c.224 1.824 1.031 3.258 2.42 4.304 1.39 1.045 3.204 1.568 5.444 1.568 1.614 0 2.846-.39 3.697-1.168.852-.778 1.277-1.79 1.277-3.036 0-1.068-.37-1.935-1.109-2.603-.74-.667-1.658-1.179-2.756-1.535-1.097-.356-2.654-.778-4.67-1.268-2.78-.622-5.03-1.256-6.756-1.901-1.725-.646-3.204-1.68-4.436-3.104-1.232-1.423-1.848-3.38-1.848-5.872 0-3.203 1.232-5.806 3.696-7.808 2.465-2.002 5.87-3.003 10.217-3.003zm32.71.467l10.15 25.092 9.41-25.092H303L280.215 67h-10.486l8.402-18.685-15.66-35.903h10.552z"/>
</svg>
